<svg xmlns="http://www.w3.org/2000/svg" version="1.1" xmlns:xlink="http://www.w3.org/1999/xlink" width="562.66669" height="453.33334"><svg width="562.66669" zoomAndPan="magnify" viewBox="0 0 422.00002 340" height="453.33334" preserveAspectRatio="xMidYMid" version="1.2" id="SvgjsSvg1019" xmlns="http://www.w3.org/2000/svg" xmlns:svg="http://www.w3.org/2000/svg">
  <defs id="SvgjsDefs1018">
    <clipPath id="SvgjsClipPath1017">
      <path d="M 509,235 H 931 V 575 H 509 Z m 0,0" id="SvgjsPath1016"></path>
    </clipPath>
    <clipPath id="SvgjsClipPath1015">
      <path d="m 495.78516,205.53516 v 398.92968 c 0,13.66797 11.08203,24.75 24.75,24.75 h 398.92968 c 13.66797,0 24.75,-11.08203 24.75,-24.75 V 205.53516 c 0,-13.66797 -11.08203,-24.75 -24.75,-24.75 H 520.53516 c -13.66797,0 -24.75,11.08203 -24.75,24.75 z m 0,0" id="SvgjsPath1014"></path>
    </clipPath>
  </defs>
  <g id="SvgjsG1013" transform="translate(-509.00001,-234.99999)" style="stroke:#000000;stroke-width:2.49975;stroke-dasharray:none;stroke-opacity:1">
    <g clip-rule="nonzero" clip-path="url(#9a1180b383)" id="SvgjsG1012" style="stroke:#000000;stroke-width:2.49975;stroke-dasharray:none;stroke-opacity:1">
      <g clip-rule="nonzero" clip-path="url(#77f20fbadd)" id="SvgjsG1011" style="stroke:#000000;stroke-width:2.49975;stroke-dasharray:none;stroke-opacity:1">
        <path style="fill:#f66305;fill-opacity:1;fill-rule:evenodd;stroke:#000000;stroke-width:2.49975;stroke-dasharray:none;stroke-opacity:1" d="m 559.71875,237.08203 c -4.52734,2.26172 -5.25,5.58984 -5.25,24.14844 -0.004,23.46484 1.16016,25.53125 14.40234,25.53125 h 6.60547 l 0.44531,218.51562 5.91407,0.25782 5.91015,0.25781 v -15.4375 c 0,-9.54297 0.32422,-15.32813 0.84766,-15.14844 0.46484,0.16016 6.28516,6.99219 12.9375,15.17969 l 12.09375,14.89062 20.53125,0.49219 0.44531,-218.57031 h 170.78516 l 0.44531,218.57031 20.53125,-0.49219 12.09375,-14.89062 c 6.65234,-8.1875 12.47656,-15.01953 12.94141,-15.17969 0.52343,-0.17969 0.84375,5.60547 0.84375,15.14844 v 15.4375 l 5.91406,-0.25781 5.91016,-0.25782 0.44531,-218.51562 h 6.60937 c 13.21485,0 14.40235,-2.08985 14.40235,-25.34375 0,-18.70703 -0.65235,-21.76172 -5.14063,-24.08594 -2.38281,-1.23047 -18.91797,-1.36719 -160.5625,-1.35547 -124.5,0.008 -158.375,0.24219 -160.10156,1.10547 m 28.02734,68.14453 c 0,11.54297 0.32032,18.35547 0.85157,18.17188 0.80468,-0.27735 29.80078,-35.59766 29.80078,-36.30078 0,-0.1875 -6.89453,-0.33594 -15.32422,-0.33594 h -15.32813 z m 233.84375,-18.1289 c 0,0.70312 28.9961,36.02343 29.80469,36.30078 0.53125,0.18359 0.84766,-6.62891 0.84766,-18.17188 v -18.46484 h -15.32422 c -8.42969,0 -15.32813,0.14844 -15.32813,0.33594 m -215.44922,34.51171 c -8.42968,10.44532 -15.32812,19.59375 -15.32812,20.32813 0,1.37891 30.14453,39.27734 31.30859,39.36328 0.36328,0.0234 0.66016,-17.6875 0.66016,-39.36328 0,-21.67969 -0.29688,-39.39063 -0.66016,-39.36719 -0.35937,0.0274 -7.55078,8.59375 -15.98047,19.03906 m 211.07032,20.32813 c 0,21.67578 0.29297,39.38672 0.65625,39.36328 1.16797,-0.0859 31.3125,-37.98437 31.3125,-39.36328 0,-1.38281 -30.14453,-39.28125 -31.3125,-39.36719 -0.36328,-0.0234 -0.65625,17.6875 -0.65625,39.36719 m -89.77344,4.85937 c -37.17188,13.23438 -35.05469,12.36329 -36.21484,14.91016 -0.67969,1.49219 -1.00391,10.03906 -1.00391,26.36328 v 24.15625 l -3.37891,-0.54297 c -8.39062,-1.33984 -17.67968,4.85157 -19.85156,13.23047 -2.02734,7.81641 0.67188,15.21485 7.22656,19.82031 8.71485,6.12891 21.83985,2.75391 26.46875,-6.80468 1.71094,-3.53907 1.79688,-5.23047 1.79688,-36.58203 v -32.86719 l 24.03906,-8.45703 c 13.22266,-4.64844 24.25781,-8.45313 24.52344,-8.45313 0.26562,0 0.48047,8.8086 0.48047,19.57813 v 19.57422 l -4.27735,-0.41016 c -5.35156,-0.51172 -9.85937,0.9375 -13.89062,4.47656 -9.51172,8.35547 -8.03516,22.70703 3.00781,29.17969 8.54297,5.00781 19.48438,2.10547 24.55078,-6.51563 l 2.4336,-4.13671 0.2539,-35.96485 c 0.25391,-35.47656 0.23047,-35.99609 -1.59375,-38.3164 -1.22656,-1.5586 -2.64453,-2.33204 -4.19922,-2.28516 -1.28906,0.0352 -14.95312,4.55859 -30.37109,10.04687 m -139.69141,52.50391 c 0,21.4375 0.3086,38.97656 0.6836,38.97656 1.07422,0 31.28515,-37.63672 31.28515,-38.97656 0,-1.33594 -30.21093,-38.97266 -31.28515,-38.97266 -0.375,0 -0.6836,17.53907 -0.6836,38.97266 m 247.82813,-20.08203 c -8.41406,10.39062 -15.29688,19.42578 -15.29688,20.08203 0,1.33984 30.20703,38.97656 31.28125,38.97656 0.375,0 0.6836,-17.53906 0.6836,-38.97656 0,-21.43359 -0.3086,-38.97266 -0.6836,-38.97266 -0.375,0 -7.57031,8.5 -15.98437,18.89063 M 514.5625,404.48437 c -1.64453,1.20704 -1.69922,2.75782 -1.69922,51.01954 v 49.77343 l 26.93359,0.23047 26.92969,0.23047 v -50.33984 c 0,-48.875 -0.0469,-50.36719 -1.6914,-51.25 -1.05079,-0.5586 -10.6836,-0.90625 -25.23438,-0.90625 -18.94141,0 -23.86719,0.24218 -25.23828,1.24218 m 360.23437,-0.29687 c -1.43359,0.83594 -1.53515,4.21484 -1.53515,51.22266 v 50.32812 l 26.93359,-0.23047 26.92969,-0.23047 v -49.77343 c 0,-48.26172 -0.0508,-49.8125 -1.69922,-51.01954 -1.37109,-1 -6.28516,-1.23437 -25.39844,-1.21484 -14.46093,0.0156 -24.29687,0.375 -25.23047,0.91797 m -268.65625,32.15625 c -8.42968,10.44531 -15.32812,19.58984 -15.32812,20.32422 0,1.38281 30.14453,39.28125 31.30859,39.36328 0.36328,0.0273 0.66016,-17.6875 0.66016,-39.36328 0,-21.67578 -0.29688,-39.39063 -0.66016,-39.36328 -0.35937,0.0234 -7.55078,8.59375 -15.98047,19.03906 m 211.07032,20.32422 c 0,21.67578 0.29297,39.39062 0.65625,39.36328 1.16797,-0.082 31.3125,-37.98047 31.3125,-39.36328 0,-1.38281 -30.14453,-39.28125 -31.3125,-39.36328 -0.36328,-0.0274 -0.65625,17.6875 -0.65625,39.36328 M 534.64453,419.8125 c -4.03125,2.45703 -5.57812,5.16797 -5.57812,9.78125 0,4.57031 2.03906,7.87891 6.16406,10.01172 7.28515,3.76953 15.73047,-1.64844 15.73047,-10.08594 0,-8.77344 -9.03516,-14.14844 -16.31641,-9.70703 m 359.96094,0 c -4.03125,2.45703 -5.57813,5.16797 -5.57813,9.78125 0,4.57031 2.03907,7.87891 6.16407,10.01172 7.28515,3.76953 15.73046,-1.64844 15.73046,-10.08594 0,-8.77344 -9.03515,-14.14844 -16.3164,-9.70703 m -360.49219,45.23437 c -4.77344,2.58985 -6.81641,11.1211 -3.77344,15.76563 3.25,4.96484 10.86328,6.60156 15.75782,3.39453 6.64843,-4.35547 6.41015,-15.0625 -0.42579,-19.09766 -2.99218,-1.76953 -8.36328,-1.79687 -11.55859,-0.0625 m 360.05859,0.10157 c -4.82031,2.99218 -6.58203,9.84765 -3.875,15.07812 3.73047,7.21485 14.79297,7.54688 19.35547,0.58594 3.10157,-4.73438 0.96875,-13.26172 -3.95703,-15.80859 -3.33594,-1.72657 -8.61719,-1.66016 -11.52344,0.14453 m -384.37109,73.66015 c 0,23.51563 0.0664,24.46875 1.96875,28.17969 1.22266,2.39063 3.125,4.44922 5.02344,5.44141 2.92578,1.53125 11.1875,1.59765 203.20312,1.59765 193.27735,0 200.25391,-0.0547 203.17969,-1.625 1.78906,-0.95703 3.84766,-3.17187 5.02344,-5.39453 1.93359,-3.65625 1.99219,-4.47265 1.99219,-28.15234 V 514.47266 H 509.80078 Z m 0,0" id="SvgjsPath1010"></path>
      </g>
    </g>
  </g>
</svg><style>@media (prefers-color-scheme: light) { :root { filter: none; } }
@media (prefers-color-scheme: dark) { :root { filter: none; } }
</style></svg>