<?xml version="1.0" encoding="UTF-8" standalone="no"?>
<!-- Created with Inkscape (http://www.inkscape.org/) -->

<svg
   width="250"
   height="250"
   viewBox="0 0 66.145832 66.145833"
   version="1.1"
   id="svg1"
   inkscape:version="1.4.2 (1:1.4.2+202505120737+ebf0e940d0)"
   sodipodi:docname="gig-vault-logo.svg"
   xmlns:inkscape="http://www.inkscape.org/namespaces/inkscape"
   xmlns:sodipodi="http://sodipodi.sourceforge.net/DTD/sodipodi-0.dtd"
   xmlns:xlink="http://www.w3.org/1999/xlink"
   xmlns="http://www.w3.org/2000/svg"
   xmlns:svg="http://www.w3.org/2000/svg">
  <sodipodi:namedview
     id="namedview1"
     pagecolor="#ffffff"
     bordercolor="#000000"
     borderopacity="0.25"
     inkscape:showpageshadow="2"
     inkscape:pageopacity="0.0"
     inkscape:pagecheckerboard="0"
     inkscape:deskcolor="#d1d1d1"
     inkscape:document-units="mm"
     inkscape:zoom="2.43"
     inkscape:cx="159.87654"
     inkscape:cy="132.92181"
     inkscape:window-width="1857"
     inkscape:window-height="1011"
     inkscape:window-x="0"
     inkscape:window-y="0"
     inkscape:window-maximized="1"
     inkscape:current-layer="layer1" />
  <defs
     id="defs1">
    <linearGradient
       inkscape:collect="always"
       xlink:href="#linearGradient1"
       id="linearGradient2"
       x1="60.7183"
       y1="184.77002"
       x2="148.40782"
       y2="64.075745"
       gradientUnits="userSpaceOnUse"
       gradientTransform="matrix(0.34736584,0,0,0.34736584,-3.4202268,-12.999488)" />
    <linearGradient
       id="linearGradient1"
       inkscape:collect="always">
      <stop
         style="stop-color:#f66305;stop-opacity:1;"
         offset="0.33366692"
         id="stop1" />
      <stop
         style="stop-color:#f6ca05;stop-opacity:1;"
         offset="1"
         id="stop2" />
    </linearGradient>
  </defs>
  <g
     inkscape:label="Layer 1"
     inkscape:groupmode="layer"
     id="layer1">
    <circle
       style="fill:#000000;stroke-width:2.45617;stroke-dasharray:none;paint-order:stroke fill markers"
       id="path4"
       cx="33.051647"
       cy="32.766048"
       r="32.150055" />
    <path
       style="clip-rule:nonzero;fill:url(#linearGradient2);fill-opacity:1;fill-rule:evenodd;stroke:#000000;stroke-width:1.73058;stroke-dasharray:none;stroke-opacity:1;paint-order:stroke fill markers"
       d="m 13.260542,9.6434267 c -0.554792,0.277161 -0.643349,0.6849953 -0.643349,2.9592193 -3.48e-4,2.875453 0.142176,3.128676 1.764907,3.128676 h 0.809452 l 0.05458,26.777552 0.724727,0.03157 0.724247,0.03158 v -1.891756 c 0,-1.169421 0.03972,-1.878353 0.103876,-1.856332 0.05696,0.01962 0.770204,0.856842 1.585403,1.860163 l 1.482001,1.824741 2.515962,0.06032 0.05456,-26.78425 h 20.928521 l 0.05456,26.78425 2.515962,-0.06032 1.482004,-1.824741 c 0.815195,-1.003321 1.528914,-1.840539 1.585879,-1.860163 0.06413,-0.02202 0.103387,0.686911 0.103387,1.856332 v 1.891758 l 0.724727,-0.03158 0.724249,-0.03157 0.05457,-26.777552 h 0.809931 c 1.619389,0 1.764906,-0.256095 1.764906,-3.105696 0,-2.292413 -0.07994,-2.6667463 -0.629949,-2.9515623 -0.291994,-0.150788 -2.318263,-0.167542 -19.675804,-0.166104 -15.256596,0.001 -19.407736,0.02967 -19.619316,0.13546 m 3.434555,8.3506333 c 0,1.414508 0.03926,2.249332 0.104354,2.226833 0.0986,-0.03397 3.651878,-4.362241 3.651878,-4.448405 0,-0.02296 -0.844878,-0.04117 -1.877877,-0.04117 h -1.878352 z m 28.655903,-2.221572 c 0,0.08615 3.553268,4.41442 3.652354,4.448405 0.06511,0.02251 0.103876,-0.812325 0.103876,-2.226833 v -2.262738 h -1.877874 c -1.032999,0 -1.878353,0.0182 -1.878353,0.04117 m -26.401783,4.229169 c -1.032997,1.280001 -1.878354,2.401076 -1.878354,2.491072 0,0.168976 3.693999,4.81316 3.836645,4.823692 0.04452,0.0027 0.0809,-2.16748 0.0809,-4.823692 0,-2.656697 -0.03638,-4.827049 -0.0809,-4.824176 -0.04403,0.0034 -0.925293,1.053106 -1.958291,2.333104 m 25.86518,2.491072 c 0,2.656212 0.0359,4.826561 0.08041,4.823692 0.143125,-0.0106 3.837125,-4.654716 3.837125,-4.823692 0,-0.169457 -3.694,-4.813644 -3.837125,-4.824176 -0.04452,-0.0027 -0.08041,2.167479 -0.08041,4.824176 m -11.0011,0.595479 c -4.555155,1.621781 -4.295711,1.515036 -4.437877,1.827137 -0.08329,0.182856 -0.123027,1.230216 -0.123027,3.230633 v 2.960177 l -0.41406,-0.06654 c -1.028213,-0.164188 -2.166519,0.594524 -2.432669,1.621299 -0.248436,0.957848 0.08233,1.864473 0.885564,2.428841 1.067942,0.751054 2.67632,0.337471 3.243561,-0.833865 0.209663,-0.433689 0.220191,-0.640959 0.220191,-4.48287 v -4.027635 l 2.945822,-1.036353 c 1.620345,-0.569632 2.972621,-1.035869 3.005173,-1.035869 0.03255,0 0.05888,1.079432 0.05888,2.399162 v 2.398683 l -0.524158,-0.05026 c -0.655796,-0.06271 -1.208197,0.114881 -1.702196,0.54857 -1.165598,1.023903 -0.984654,2.782589 0.368582,3.575768 1.046882,0.613668 2.387674,0.258008 3.008526,-0.798445 l 0.29822,-0.506925 0.03113,-4.40724 c 0.03113,-4.347402 0.02824,-4.411067 -0.195301,-4.695402 -0.150306,-0.190996 -0.32407,-0.28578 -0.514586,-0.280033 -0.157965,0.0043 -1.8324,0.558624 -3.72176,1.231172 m -17.1182,6.433986 c 0,2.627014 0.03781,4.776302 0.08376,4.776302 0.131644,0 3.833772,-4.612116 3.833772,-4.776302 0,-0.16371 -3.702134,-4.775824 -3.833772,-4.775824 -0.04595,0 -0.08376,2.149287 -0.08376,4.775824 m 30.369588,-2.460912 c -1.031083,1.273297 -1.874521,2.380491 -1.874521,2.460912 0,0.164186 3.701655,4.776302 3.833296,4.776302 0.04595,0 0.08378,-2.149288 0.08378,-4.776302 0,-2.626537 -0.03781,-4.775824 -0.08378,-4.775824 -0.04595,0 -0.927688,1.041613 -1.958775,2.314912 M 7.726969,30.157407 c -0.2015245,0.147917 -0.2082252,0.337952 -0.2082252,6.252087 v 6.099383 l 3.3005212,0.02824 3.300042,0.02824 V 36.39656 c 0,-5.989285 -0.0057,-6.172141 -0.207266,-6.280325 -0.128771,-0.06845 -1.309201,-0.111049 -3.092297,-0.111049 -2.3211365,0 -2.9247563,0.02967 -3.092775,0.152219 m 44.144183,-0.03637 c -0.175672,0.102432 -0.18812,0.516499 -0.18812,6.276977 v 6.167356 l 3.300522,-0.02824 3.300046,-0.02824 v -6.099384 c 0,-5.914132 -0.0063,-6.104168 -0.20823,-6.252084 -0.168016,-0.12254 -0.770204,-0.151264 -3.112402,-0.14887 -1.772083,0.0017 -2.977408,0.04595 -3.091816,0.112494 m -32.921928,3.940519 c -1.032995,1.280002 -1.878353,2.400596 -1.878353,2.490592 0,0.169452 3.694,4.81364 3.836646,4.823694 0.04452,0.0034 0.0809,-2.167481 0.0809,-4.823694 0,-2.656217 -0.03638,-4.827044 -0.0809,-4.823695 -0.04404,0.0027 -0.925292,1.053104 -1.958293,2.333103 m 25.865181,2.490592 c 0,2.656213 0.0359,4.827042 0.08041,4.823694 0.143125,-0.01001 3.837125,-4.654242 3.837125,-4.823694 0,-0.169455 -3.694,-4.813643 -3.837125,-4.823695 -0.04452,-0.0034 -0.08041,2.167478 -0.08041,4.823695 m -34.626522,-4.51638 c -0.4940033,0.301092 -0.6835603,0.633299 -0.6835603,1.198622 0,0.560062 0.249873,0.965508 0.7553613,1.226866 0.892744,0.46193 1.927658,-0.202005 1.927658,-1.235958 0,-1.075126 -1.107193,-1.733794 -1.999459,-1.18953 m 44.110676,0 c -0.494003,0.301092 -0.68356,0.633299 -0.68356,1.198622 0,0.560062 0.249874,0.965508 0.75536,1.226866 0.892745,0.46193 1.927658,-0.202005 1.927658,-1.235958 0,-1.075126 -1.107193,-1.733794 -1.999458,-1.18953 M 10.12277,37.57893 c -0.5849503,0.317368 -0.8353003,1.36281 -0.4624073,1.931965 0.3982653,0.608405 1.3312173,0.808975 1.9310103,0.415976 0.814719,-0.533732 0.785519,-1.845803 -0.05217,-2.340285 -0.366672,-0.216843 -1.024861,-0.220192 -1.416427,-0.0076 m 44.122644,0.01244 c -0.590694,0.366672 -0.806581,1.206762 -0.474853,1.847719 0.457144,0.884129 1.812774,0.924816 2.371876,0.07181 0.380074,-0.580166 0.118711,-1.625129 -0.484905,-1.93723 -0.408797,-0.211582 -1.055979,-0.203442 -1.412118,0.01772 M 7.1434537,46.617983 c 0,2.881676 0.00815,2.998472 0.2412583,3.453223 0.1498275,0.292954 0.3829469,0.545221 0.6155866,0.666807 0.3585325,0.187643 1.3709481,0.195782 24.9011084,0.195782 23.684779,0 24.539708,-0.0068 24.89824,-0.199135 0.219237,-0.117281 0.471505,-0.388689 0.615589,-0.661061 0.236945,-0.448047 0.244129,-0.548091 0.244129,-3.449872 V 43.635788 H 7.1434537 Z m 0,0"
       id="path3"
       clip-path="url(#clipPath4)" />
  </g>
</svg>
