<?xml version="1.0" encoding="UTF-8" standalone="no"?>
<!-- Created with Inkscape (http://www.inkscape.org/) -->

<svg
   width="250"
   height="250"
   viewBox="0 0 66.145832 66.145833"
   version="1.1"
   id="svg1"
   inkscape:version="1.4.2 (1:1.4.2+202505120737+ebf0e940d0)"
   sodipodi:docname="gig-vault-logo3.svg"
   xmlns:inkscape="http://www.inkscape.org/namespaces/inkscape"
   xmlns:sodipodi="http://sodipodi.sourceforge.net/DTD/sodipodi-0.dtd"
   xmlns:xlink="http://www.w3.org/1999/xlink"
   xmlns="http://www.w3.org/2000/svg"
   xmlns:svg="http://www.w3.org/2000/svg">
  <sodipodi:namedview
     id="namedview1"
     pagecolor="#ffffff"
     bordercolor="#000000"
     borderopacity="0.25"
     inkscape:showpageshadow="2"
     inkscape:pageopacity="0.0"
     inkscape:pagecheckerboard="0"
     inkscape:deskcolor="#d1d1d1"
     inkscape:document-units="mm"
     inkscape:zoom="2.43"
     inkscape:cx="159.87654"
     inkscape:cy="100"
     inkscape:window-width="1857"
     inkscape:window-height="1011"
     inkscape:window-x="0"
     inkscape:window-y="0"
     inkscape:window-maximized="1"
     inkscape:current-layer="layer1" />
  <defs
     id="defs1">
    <linearGradient
       inkscape:collect="always"
       xlink:href="#linearGradient1"
       id="linearGradient2"
       x1="60.7183"
       y1="184.77002"
       x2="148.40782"
       y2="64.075745"
       gradientUnits="userSpaceOnUse"
       gradientTransform="matrix(0.34736584,0,0,0.34736584,-3.24872,-12.999488)" />
    <linearGradient
       id="linearGradient1"
       inkscape:collect="always">
      <stop
         style="stop-color:#f66305;stop-opacity:1;"
         offset="0.33366692"
         id="stop1" />
      <stop
         style="stop-color:#f6ca05;stop-opacity:1;"
         offset="1"
         id="stop2" />
    </linearGradient>
  </defs>
  <g
     inkscape:label="Layer 1"
     inkscape:groupmode="layer"
     id="layer1">
    <path
       style="clip-rule:nonzero;fill:url(#linearGradient2);fill-opacity:1;fill-rule:evenodd;stroke:#000000;stroke-width:1.73058;stroke-dasharray:none;stroke-opacity:1;paint-order:stroke fill markers"
       d="M 13.432049,9.6434267 C 12.877257,9.9205877 12.7887,10.328422 12.7887,12.602646 c -3.48e-4,2.875453 0.142176,3.128676 1.764907,3.128676 h 0.809452 l 0.05458,26.777552 0.724727,0.03157 0.724247,0.03158 v -1.891756 c 0,-1.169421 0.03972,-1.878353 0.103876,-1.856332 0.05696,0.01962 0.770204,0.856842 1.585403,1.860163 l 1.482001,1.824741 2.515962,0.06032 0.05456,-26.78425 h 20.928521 l 0.05456,26.78425 2.515962,-0.06032 1.482004,-1.824741 c 0.815195,-1.003321 1.528914,-1.840539 1.585879,-1.860163 0.06413,-0.02202 0.103387,0.686911 0.103387,1.856332 v 1.891758 l 0.724727,-0.03158 0.724249,-0.03157 0.05457,-26.777552 h 0.809931 c 1.619389,0 1.764906,-0.256095 1.764906,-3.105696 0,-2.292413 -0.07994,-2.6667463 -0.629949,-2.9515623 -0.291994,-0.150788 -2.318263,-0.167542 -19.675804,-0.166104 -15.256596,0.001 -19.407736,0.02967 -19.619316,0.13546 m 3.434555,8.3506333 c 0,1.414508 0.03926,2.249332 0.104354,2.226833 0.0986,-0.03397 3.651878,-4.362241 3.651878,-4.448405 0,-0.02296 -0.844878,-0.04117 -1.877877,-0.04117 H 16.8666 Z M 45.5225,15.772483 c 0,0.08615 3.553268,4.41442 3.652354,4.448405 0.06511,0.02251 0.103876,-0.812325 0.103876,-2.226833 v -2.262738 h -1.877874 c -1.032999,0 -1.878353,0.0182 -1.878353,0.04117 M 19.12072,20.001656 c -1.032997,1.280001 -1.878354,2.401076 -1.878354,2.491072 0,0.168976 3.693999,4.81316 3.836645,4.823692 0.04452,0.0027 0.0809,-2.16748 0.0809,-4.823692 0,-2.656697 -0.03638,-4.827049 -0.0809,-4.824176 -0.04403,0.0034 -0.925293,1.053106 -1.958291,2.333104 m 25.86518,2.491072 c 0,2.656212 0.0359,4.826561 0.08041,4.823692 0.143125,-0.0106 3.837125,-4.654716 3.837125,-4.823692 0,-0.169457 -3.694,-4.813644 -3.837125,-4.824176 -0.04452,-0.0027 -0.08041,2.167479 -0.08041,4.824176 m -11.0011,0.595479 c -4.555155,1.621781 -4.295711,1.515036 -4.437877,1.827137 -0.08329,0.182856 -0.123027,1.230216 -0.123027,3.230633 v 2.960177 l -0.41406,-0.06654 c -1.028213,-0.164188 -2.166519,0.594524 -2.432669,1.621299 -0.248436,0.957848 0.08233,1.864473 0.885564,2.428841 1.067942,0.751054 2.67632,0.337471 3.243561,-0.833865 0.209663,-0.433689 0.220191,-0.640959 0.220191,-4.48287 v -4.027635 l 2.945822,-1.036353 c 1.620345,-0.569632 2.972621,-1.035869 3.005173,-1.035869 0.03255,0 0.05888,1.079432 0.05888,2.399162 v 2.398683 L 36.4122,28.420747 c -0.655796,-0.06271 -1.208197,0.114881 -1.702196,0.54857 -1.165598,1.023903 -0.984654,2.782589 0.368582,3.575768 1.046882,0.613668 2.387674,0.258008 3.008526,-0.798445 l 0.29822,-0.506925 0.03113,-4.40724 c 0.03113,-4.347402 0.02824,-4.411067 -0.195301,-4.695402 -0.150306,-0.190996 -0.32407,-0.28578 -0.514586,-0.280033 -0.157965,0.0043 -1.8324,0.558624 -3.72176,1.231172 m -17.1182,6.433986 c 0,2.627014 0.03781,4.776302 0.08376,4.776302 0.131644,0 3.833772,-4.612116 3.833772,-4.776302 0,-0.16371 -3.702134,-4.775824 -3.833772,-4.775824 -0.04595,0 -0.08376,2.149287 -0.08376,4.775824 m 30.369588,-2.460912 c -1.031083,1.273297 -1.874521,2.380491 -1.874521,2.460912 0,0.164186 3.701655,4.776302 3.833296,4.776302 0.04595,0 0.08378,-2.149288 0.08378,-4.776302 0,-2.626537 -0.03781,-4.775824 -0.08378,-4.775824 -0.04595,0 -0.927688,1.041613 -1.958775,2.314912 M 7.8984758,30.157407 c -0.2015245,0.147917 -0.2082252,0.337952 -0.2082252,6.252087 v 6.099383 l 3.3005214,0.02824 3.300042,0.02824 V 36.39656 c 0,-5.989285 -0.0057,-6.172141 -0.207266,-6.280325 -0.128771,-0.06845 -1.309201,-0.111049 -3.092297,-0.111049 -2.3211367,0 -2.9247565,0.02967 -3.0927752,0.152219 m 44.1441832,-0.03637 c -0.175672,0.102432 -0.18812,0.516499 -0.18812,6.276977 v 6.167356 l 3.300522,-0.02824 3.300046,-0.02824 v -6.099384 c 0,-5.914132 -0.0063,-6.104168 -0.20823,-6.252084 -0.168016,-0.12254 -0.770204,-0.151264 -3.112402,-0.14887 -1.772083,0.0017 -2.977408,0.04595 -3.091816,0.112494 m -32.921928,3.940519 c -1.032995,1.280002 -1.878353,2.400596 -1.878353,2.490592 0,0.169452 3.694,4.81364 3.836646,4.823694 0.04452,0.0034 0.0809,-2.167481 0.0809,-4.823694 0,-2.656217 -0.03638,-4.827044 -0.0809,-4.823695 -0.04404,0.0027 -0.925292,1.053104 -1.958293,2.333103 m 25.865181,2.490592 c 0,2.656213 0.0359,4.827042 0.08041,4.823694 0.143125,-0.01001 3.837125,-4.654242 3.837125,-4.823694 0,-0.169455 -3.694,-4.813643 -3.837125,-4.823695 -0.04452,-0.0034 -0.08041,2.167478 -0.08041,4.823695 M 10.35939,32.035775 c -0.4940035,0.301092 -0.6835605,0.633299 -0.6835605,1.198622 0,0.560062 0.249873,0.965508 0.7553615,1.226866 0.892744,0.46193 1.927658,-0.202005 1.927658,-1.235958 0,-1.075126 -1.107193,-1.733794 -1.999459,-1.18953 m 44.110676,0 c -0.494003,0.301092 -0.68356,0.633299 -0.68356,1.198622 0,0.560062 0.249874,0.965508 0.75536,1.226866 0.892745,0.46193 1.927658,-0.202005 1.927658,-1.235958 0,-1.075126 -1.107193,-1.733794 -1.999458,-1.18953 M 10.294277,37.57893 c -0.5849505,0.317368 -0.8353005,1.36281 -0.4624075,1.931965 0.3982655,0.608405 1.3312175,0.808975 1.9310105,0.415976 0.814719,-0.533732 0.785519,-1.845803 -0.05217,-2.340285 -0.366672,-0.216843 -1.024861,-0.220192 -1.416427,-0.0076 m 44.122644,0.01244 c -0.590694,0.366672 -0.806581,1.206762 -0.474853,1.847719 0.457144,0.884129 1.812774,0.924816 2.371876,0.07181 0.380074,-0.580166 0.118711,-1.625129 -0.484905,-1.93723 -0.408797,-0.211582 -1.055979,-0.203442 -1.412118,0.01772 M 7.3149605,46.617983 c 0,2.881676 0.00815,2.998472 0.2412583,3.453223 0.1498275,0.292954 0.3829469,0.545221 0.6155866,0.666807 0.3585325,0.187643 1.3709481,0.195782 24.9011086,0.195782 23.684779,0 24.539708,-0.0068 24.89824,-0.199135 0.219237,-0.117281 0.471505,-0.388689 0.615589,-0.661061 0.236945,-0.448047 0.244129,-0.548091 0.244129,-3.449872 V 43.635788 H 7.3149605 Z m 0,0"
       id="path3"
       clip-path="url(#clipPath4)" />
    <path
       style="font-size:74.6667px;font-family:'Modern Thrash Demo';-inkscape-font-specification:'Modern Thrash Demo';white-space:pre;stroke-width:1.37011;paint-order:stroke fill markers"
       d="m 31.088623,9.94185 v 0 0 q 0.965635,0.02132 1.177864,0.275896 0,0.02132 0.02132,0.07429 0,0.02387 -0.09549,0.233451 v 0.05305 q 0,0.03979 0.06368,0.371396 v 0.03182 q 0,0.08223 -0.116724,0.106111 -0.167134,-0.01055 -0.244065,-0.01055 -0.419148,0 -1.337032,0.392621 0.509347,-0.403231 0.509347,-0.519957 v -0.01056 q -0.01863,-0.04244 -0.07429,-0.04244 h -0.02133 q -0.416499,0 -1.156642,0.424456 -0.782589,0.511998 -1.029301,1.199084 -0.02133,0.100814 -0.02133,0.159165 0,0.204276 0.191011,0.244059 h 0.09549 q 0.413843,-0.04509 1.114193,-0.424453 0.254674,-0.161814 0.254674,-0.350174 0,-0.198958 -0.55179,-0.38201 h -0.01056 v -0.01055 q 0.509345,-0.05305 2.652843,-0.233452 -0.206924,0.201628 -0.265286,0.339564 -2.225734,3.639697 -2.302666,3.745817 l 0.583626,-2.323891 q -0.395274,0.283854 -1.029304,0.509343 -0.281201,0.09549 -0.413843,0.127341 l 0.350174,-0.212219 q 0.172429,-0.108759 0.265285,-0.201628 h -0.01056 q -0.573013,0.360786 -1.135417,0.360786 h -0.116725 q -0.710961,0 -0.912577,-0.498734 -0.06368,-0.159165 -0.06368,-0.371398 0,-0.413844 0.275895,-0.976244 h -0.01056 q -0.222835,0.286506 -0.23345,0.286506 v -0.01055 q 0.435067,-1.018694 1.453758,-1.665985 1.143375,-0.689739 2.143496,-0.689739 z m 3.838663,-0.2175391 v 0 h 0.01055 v 0.01054 q -0.185693,0.10611 -0.509346,0.5305681 -0.411191,0.591585 -0.806465,1.612929 -0.339563,0.86748 -0.339563,1.740264 l 0.01056,0.04244 h -0.02132 q -0.06632,-0.161836 -0.0849,-0.244061 h -0.01056 q -0.119374,0.628722 -0.127341,1.008085 h -0.01055 q 0,-0.124694 -0.265285,-0.26529 -0.07693,-0.04244 -0.169781,-0.04244 h -0.07429 q -0.413845,0 -1.241531,0.466904 -0.328952,0.198955 -0.573013,0.47751 0,0.01593 -0.03184,0.03182 v -0.01055 q 0.424454,-0.915229 0.710962,-1.209697 0.204276,-0.220187 0.297118,-0.275896 0.167134,0.05305 0.201629,0.05305 0.265283,-0.04244 0.265283,-0.265286 v -0.03182 q 0,-0.143254 -0.137957,-0.403232 0.23345,-0.214868 0.350175,-0.477512 0.127341,-0.246715 0.233451,-0.54118 -0.119373,0.108759 -0.21222,0.169781 h -0.01056 q 0.347524,-0.530568 0.541182,-1.209695 0.07429,-0.286507 0.07429,-0.477511 v -0.01055 q 0,-0.222836 -0.137934,-0.29712 l -0.07429,-0.06368 v -0.01055 l 0.02132,0.01055 h 0.04244 q 0.538527,0 1.283975,-0.2228361 0.538529,-0.09549 0.795853,-0.09549 z M 37.264441,9.94185 v 0 0 q 0.965635,0.02132 1.177862,0.275896 0,0.02132 0.02132,0.07429 0,0.02387 -0.09549,0.233451 v 0.05305 q 0,0.03979 0.06368,0.371396 v 0.03182 q 0,0.08223 -0.116725,0.106111 -0.167132,-0.01055 -0.244062,-0.01055 -0.419149,0 -1.337032,0.392621 0.509346,-0.403231 0.509346,-0.519957 v -0.01056 q -0.01863,-0.04244 -0.07429,-0.04244 h -0.02132 q -0.416496,0 -1.156641,0.424456 -0.782587,0.511998 -1.029302,1.199084 -0.02133,0.100814 -0.02133,0.159165 0,0.204276 0.191011,0.244059 h 0.09549 q 0.413843,-0.04509 1.114193,-0.424453 0.254673,-0.161814 0.254673,-0.350174 0,-0.198958 -0.551791,-0.38201 h -0.01056 v -0.01055 q 0.509345,-0.05305 2.652842,-0.233452 -0.206924,0.201628 -0.265285,0.339564 -2.225733,3.639697 -2.302665,3.745817 l 0.583624,-2.323891 q -0.395272,0.283854 -1.029303,0.509343 -0.281201,0.09549 -0.413844,0.127341 l 0.350175,-0.212219 q 0.172429,-0.108759 0.265284,-0.201628 h -0.01055 q -0.573012,0.360786 -1.135417,0.360786 h -0.116725 q -0.71096,0 -0.912577,-0.498734 -0.06368,-0.159165 -0.06368,-0.371398 0,-0.413844 0.275896,-0.976244 h -0.01055 q -0.222836,0.286506 -0.233451,0.286506 v -0.01055 q 0.435067,-1.018694 1.453758,-1.665985 1.143375,-0.689739 2.143497,-0.689739 z"
       id="text4"
       aria-label="gig" />
    <path
       style="font-size:74.6667px;font-family:'Modern Thrash Demo';-inkscape-font-specification:'Modern Thrash Demo';white-space:pre;stroke-width:1.37011;paint-order:stroke fill markers"
       d="m 29.791365,43.701998 v 0 h 0.01056 v 0.01056 q -2.58652,4.316173 -2.621007,4.350661 v -0.01056 l 0.127341,-0.594235 q -1.11154,1.663331 -1.156639,1.761487 -0.278549,-0.04244 -0.466901,-0.04244 h -0.04244 q -0.543835,0 -0.901968,0.36079 -0.453636,0.472207 -0.647294,0.880737 h -0.01055 v -0.01055 l 1.188474,-4.138436 v -0.01055 h -0.01055 l -0.30773,0.721573 h -0.01055 v -0.02132 q 0.360784,-1.647414 0.360784,-1.676597 h 0.01056 q 0,0.169782 0.244062,0.201628 0.106111,0 0.721574,-0.201628 0.124692,-0.03182 0.201605,-0.03182 0.05305,0 0.05305,0.02133 -0.191012,0.753406 -0.71096,2.716509 0.07429,-0.09549 1.400701,-2.132884 h 0.01055 v 0.01056 q -0.02133,0.05305 -0.10611,0.371395 v 0.01056 h 0.01056 q 0.267939,-0.501386 0.710963,-1.230917 0.06368,-0.137957 0.06368,-0.254673 -0.01056,-0.145902 -0.01056,-0.180397 0,-0.06368 0.201605,-0.06368 0.583625,-0.135285 1.687206,-0.817077 z m -0.05571,2.575908 v 0 L 28.8443,47.551272 q 0.573015,-0.14855 0.573015,-0.169782 0.116726,-0.458941 0.328951,-1.103584 z m 1.337037,-1.737612 v 0.01056 q -0.382008,0.856868 -0.657903,1.740264 v 0.01056 h 0.01056 l 0.24406,-0.456291 h 0.01056 v 0.02132 q -0.191011,0.634031 -0.360785,1.294589 l 0.604848,-0.16978 q -0.252021,0.15122 -0.392621,0.297116 -0.159165,0.167134 -0.159165,0.3714 v 0.03182 l 0.01055,0.07429 q -0.233451,0.06896 -0.233451,0.10611 -0.191012,1.337033 -0.191012,2.928734 v 0.02132 h -0.01055 q -0.196322,-0.769351 -0.424471,-1.220333 -0.177748,-0.25998 -0.445675,-0.392623 v -0.01056 q 0.191012,-0.214891 0.191012,-0.297119 0,-0.08489 -0.21222,-0.222836 0.03185,-0.225491 0.09549,-0.498734 h -0.01055 q -0.708307,0.233449 -0.732185,0.254672 -0.591582,1.010733 -0.615457,1.411309 v 0.04244 q -0.04244,0 -0.191013,-0.01056 -0.488125,0 -0.901968,0.26529 -0.541179,0.305076 -1.337033,0.944407 h -0.01055 q 1.021343,-1.180511 1.793322,-2.238996 h -0.01055 q -0.766673,0.254674 -0.785242,0.254674 0.880743,-0.681784 0.880743,-0.859523 0,-0.09817 -0.169781,-0.16978 v -0.01056 l 0.795853,-0.233449 q 0.819727,-1.215001 1.135415,-1.782708 0.0955,-0.191012 0.0955,-0.328955 0,-0.244059 -0.413843,-0.244059 v -0.01056 q 0.307728,0 1.63415,-0.689741 -0.159165,0.228145 -0.159165,0.244063 z m 3.430128,0.06368 v 0 h 0.01055 q 0.04244,0.270589 0.04244,0.615461 v 0.169781 q 0,0.779936 -0.339566,1.39009 l -0.04244,0.04244 v -0.01056 q 0.137957,-0.485471 0.137957,-0.70035 v -0.02132 h -0.01056 q 0,0.164484 -0.424455,1.209697 -0.25998,0.570359 -0.700351,1.156638 -0.851562,1.008078 -1.899433,1.008078 -0.697699,0 -0.944414,-0.710961 -0.08489,-0.294464 -0.08489,-0.62607 v -0.02133 q 0,-0.09019 0.01055,-0.265284 h 0.01055 q 0.106111,0.29977 0.106111,0.328952 h 0.01056 v -0.12734 q 0,-0.01056 -0.01056,-0.01056 l 0.01056,-0.02133 v -0.0849 q 0,-0.726879 0.435067,-1.697819 h -0.01056 q -0.275896,0.519958 -0.297119,0.53057 l 0.254673,-0.944415 h 0.180396 q 0.458942,0 0.838297,-0.201626 0.477511,-0.14855 0.657905,-0.14855 v 0.01055 q -1.103582,1.867602 -1.103582,2.504285 0,0.254675 0.222837,0.254675 0.366091,0 0.859518,-0.604851 -0.07693,0.04511 -0.339563,0.233451 h -0.01056 q 1.177862,-1.443147 1.177862,-2.175329 0,-0.05836 0.01056,-0.116727 -0.02653,-0.366093 -0.127342,-0.392621 v -0.02132 q 0.259979,-0.180396 0.509347,-0.180396 h 0.02133 q 0.233452,0.03182 0.265285,0.03182 0.2812,0 0.573015,-0.39262 z m 2.581214,0.137956 v 0 0 q -0.912579,1.161947 -1.029305,1.634152 0.135286,-0.129989 0.456289,-0.615461 v 0.01056 q -1.390088,2.928737 -1.443144,3.056073 h 0.191011 q 0.40323,0 0.679128,-0.02133 v -0.01055 q -0.299773,-0.06102 -0.350175,-0.10611 v -0.01056 q 0.0504,0 0.10611,-0.01055 1.535995,0.02133 2.313277,0.04244 v 0.01055 l -1.114192,0.328953 v 0.01056 h 0.01055 l 0.403233,-0.03181 h 0.01056 v 0.01056 q -1.188472,0.273242 -2.281444,0.668516 -0.0078,0.01056 -0.668514,0.254673 l 0.403232,-0.265304 q -2.018813,0.615458 -2.037383,0.615458 v -0.02133 q 0.923191,-0.785235 0.923191,-1.050521 0.02132,0 0.02132,-0.127341 0,-0.11143 -0.06368,-0.201629 l 0.191012,-0.148548 q 0.167133,-0.135287 0.371397,-0.519956 0.986858,-2.209818 0.986858,-2.652843 -0.0053,-0.06632 -0.04244,-0.10611 0,-0.02653 1.008078,-0.38201 0.02132,-0.02132 0.955026,-0.360788 z m 3.366457,-1.108887 v 0.01056 l -0.30773,0.657906 1.910046,-0.286506 h 0.01056 v 0.01056 q -0.573016,0.424454 -0.573016,0.753407 0,0.177748 0.127341,0.38201 h -0.01056 q -1.130111,0.03181 -1.899435,0.116724 -0.530568,1.201742 -0.955021,2.334503 h 0.01056 q 0.24141,-0.257327 0.286507,-0.275896 v 0.01056 q -0.679128,1.33438 -0.679128,1.772101 v 0.06368 q 0,0.01056 -0.01055,0.01056 l 0.01055,0.02133 v 0.06368 q 0,0.249363 0.0849,0.488122 -0.201627,-0.180395 -0.435067,-0.180395 h -0.04244 q -0.01056,0 -0.01056,-0.01056 l -0.02132,0.01056 h -0.05305 q -0.599542,0 -2.10105,1.379481 v -0.01056 q 0.575668,-0.904621 1.029301,-1.750876 -0.294463,0.193661 -0.615459,0.30773 0.607502,-0.570361 0.764018,-0.795852 0.607504,-0.872786 0.838299,-1.517426 0.318343,-0.740144 0.626072,-1.740266 h -0.01056 q -0.668516,0.137958 -1.10358,0.30773 -0.191013,0.07958 -0.551794,0.360787 h -0.01056 q 0.01056,-0.05305 0.07429,-0.169781 -0.4218,0.183044 -0.880744,0.519957 v -0.01056 q 0.774639,-1.005452 0.774639,-1.167276 v -0.06368 q 0,-0.196307 -0.392622,-0.392621 v -0.02133 q 2.167373,-0.286506 2.376946,-0.328951 l 0.07429,-0.265286 q -0.01056,-0.02132 -0.01056,-0.03183 l 0.02133,-0.01056 q 0,0.06368 0.159164,0.06368 0.40058,0 1.177863,-0.392618 0.191012,-0.116726 0.318339,-0.222837 z"
       id="text6"
       aria-label="vault" />
  </g>
</svg>
